<svg width="24" height="24" viewBox="0 0 24 24" fill="none" xmlns="http://www.w3.org/2000/svg">
<path d="M15.5713 8.12903C14.9865 4.52823 13.6072 2 12.002 2C10.3969 2 9.01754 4.52823 8.43275 8.12903H15.5713ZM8.13027 12C8.13027 12.8952 8.17867 13.754 8.26336 14.5806H15.7366C15.8213 13.754 15.8697 12.8952 15.8697 12C15.8697 11.1048 15.8213 10.246 15.7366 9.41935H8.26336C8.17867 10.246 8.13027 11.1048 8.13027 12ZM21.2257 8.12903C20.0722 5.39113 17.737 3.27419 14.8534 2.41935C15.8375 3.78226 16.515 5.83468 16.8699 8.12903H21.2257ZM9.1466 2.41935C6.26699 3.27419 3.92781 5.39113 2.77838 8.12903H7.1341C7.48498 5.83468 8.16253 3.78226 9.1466 2.41935ZM21.6572 9.41935H17.0313C17.116 10.2661 17.1643 11.1331 17.1643 12C17.1643 12.8669 17.116 13.7339 17.0313 14.5806H21.6532C21.875 13.754 22 12.8952 22 12C22 11.1048 21.875 10.246 21.6572 9.41935ZM6.83969 12C6.83969 11.1331 6.88808 10.2661 6.97278 9.41935H2.34684C2.12906 10.246 2 11.1048 2 12C2 12.8952 2.12906 13.754 2.34684 14.5806H6.96874C6.88808 13.7339 6.83969 12.8669 6.83969 12ZM8.43275 15.871C9.01754 19.4718 10.3969 22 12.002 22C13.6072 22 14.9865 19.4718 15.5713 15.871H8.43275ZM14.8574 21.5806C17.737 20.7258 20.0762 18.6089 21.2297 15.871H16.874C16.5191 18.1653 15.8415 20.2177 14.8574 21.5806ZM2.77838 15.871C3.93184 18.6089 6.26699 20.7258 9.15064 21.5806C8.16657 20.2177 7.48901 18.1653 7.1341 15.871H2.77838Z" fill="white"></path>
</svg>