<svg width="20" height="20" viewBox="0 0 20 20" fill="none" xmlns="http://www.w3.org/2000/svg">
<path fill-rule="evenodd" clip-rule="evenodd" d="M13.527 0.836977C14.2835 0.881153 14.8617 1.394 15.2474 2.20986C15.5163 2.77922 15.4267 3.34395 15.1131 3.80654C14.8234 4.23343 14.3555 4.56283 13.8517 4.81077C13.7137 4.87868 13.5676 4.94126 13.4163 5.0012H17.6921C18.9664 5.00126 19.9997 6.05834 20 7.36204V10.3585C19.0493 10.5637 18.3335 11.4566 18.3333 12.5272C18.3334 13.5979 19.0493 14.4908 20 14.696V16.807C19.9997 18.1108 18.9664 19.1678 17.6921 19.1679H5.48909V16.4579H4.48893V19.1679H2.30794C1.03357 19.1679 0.000282085 18.1108 0 16.807V14.696C0.950777 14.4909 1.66655 13.598 1.66667 12.5272C1.66653 11.4565 0.95077 10.5636 0 10.3585V7.36204C0.000301078 6.0583 1.03358 5.00121 2.30794 5.0012H4.48893V7.50283H5.48909V5.0012H6.99056C6.83927 4.94124 6.69325 4.8787 6.55518 4.81077C6.05132 4.56282 5.58357 4.2335 5.29378 3.80654C4.98004 3.34391 4.89051 2.77931 5.15951 2.20986C5.54518 1.39406 6.12343 0.8811 6.87988 0.836977C7.56776 0.797056 8.20455 1.16495 8.70117 1.58079C9.26815 2.05564 9.79475 2.71389 10.2026 3.36465C10.6106 2.7137 11.1386 2.05577 11.7057 1.58079C12.2024 1.16495 12.8391 0.796921 13.527 0.836977ZM11.6886 6.66787V7.86986C11.0663 7.97997 10.5698 8.25229 10.1978 8.68447C9.82567 9.10894 9.6395 9.64312 9.63949 10.2877C9.6395 10.9086 9.81113 11.4121 10.1546 11.7973C10.498 12.1743 10.9595 12.4452 11.5389 12.6103C11.8466 12.6967 12.1301 12.7921 12.3877 12.8943C12.6521 12.9964 12.8627 13.1298 13.02 13.2947C13.1774 13.4597 13.256 13.6803 13.256 13.9555C13.2559 14.2381 13.1559 14.4655 12.9557 14.6382C12.7554 14.8111 12.4801 14.8978 12.1297 14.8979C11.8006 14.8978 11.4888 14.8033 11.1955 14.6146C10.9022 14.4182 10.6586 14.1079 10.4655 13.6837L9.16667 14.5919C9.46006 15.1577 9.82133 15.5825 10.2507 15.8655C10.687 16.1483 11.1665 16.313 11.6886 16.3603V17.209H12.8703V16.2781C13.4784 16.1444 13.9508 15.865 14.2871 15.4407C14.6233 15.0085 14.7916 14.4818 14.7917 13.8611C14.7917 13.3894 14.7089 12.999 14.5443 12.6924C14.3798 12.3863 14.1693 12.1423 13.9119 11.9617C13.6543 11.773 13.3854 11.6276 13.1063 11.5255C12.8345 11.4155 12.5875 11.3216 12.3657 11.2431C12.0366 11.133 11.7539 11.0105 11.5177 10.8769C11.2889 10.7354 11.1744 10.5118 11.1743 10.2055C11.1743 9.93033 11.2708 9.70974 11.464 9.54466C11.6643 9.37968 11.9147 9.2973 12.2152 9.29726C12.4942 9.29727 12.7308 9.37171 12.924 9.52106C13.1171 9.67037 13.3034 9.90617 13.4823 10.2283L14.7705 9.35667C14.5415 8.95578 14.2726 8.62922 13.9648 8.37767C13.6572 8.12619 13.2924 7.95634 12.8703 7.86986V6.66787H11.6886ZM4.48893 15.3153H5.48909V12.5517H4.48893V15.3153ZM4.48893 11.4091H5.48909V8.64541H4.48893V11.4091ZM6.95231 2.08454C6.8134 2.09274 6.56024 2.17195 6.28988 2.74372C6.22947 2.87155 6.23554 2.96847 6.32812 3.10504C6.44521 3.27747 6.69549 3.48686 7.10693 3.68935C7.68686 3.97466 8.47011 4.18744 9.29687 4.2875C8.94117 3.66737 8.43434 2.98718 7.89876 2.53864C7.48365 2.19109 7.15979 2.07261 6.95231 2.08454ZM13.4546 2.08454C13.2472 2.07246 12.9234 2.19104 12.5081 2.53864C11.9726 2.98713 11.4657 3.6674 11.11 4.2875C11.9368 4.18743 12.7201 3.97467 13.3 3.68935C13.7113 3.4869 13.9617 3.27744 14.0788 3.10504C14.1712 2.96858 14.1774 2.87148 14.117 2.74372C13.8467 2.17196 13.5935 2.09278 13.4546 2.08454Z" fill="#DF0730"></path>
</svg>