<svg width="29" height="24" viewBox="0 0 29 24" fill="none" xmlns="http://www.w3.org/2000/svg">
<g clip-path="url(#clip0_3558_16305)">
<path d="M25.6936 3H2.46774C2.32258 3 2.32258 3 2.17742 3C2.03226 3 2.03226 3 1.8871 3C1.74194 3 1.59677 3 1.30645 3C1.16129 3 1.01613 3.14516 0.870968 3.14516C0.725806 3.29032 0.580645 3.29032 0.435483 3.43548C0.290322 3.58065 0.290322 3.72581 0.145161 3.87097C0.145161 4.01613 0 4.30645 0 4.45161C0 4.59677 0 4.74193 0 5.03226C0 5.17742 0 5.17742 0 5.32258C0 5.46774 0 5.46774 0 5.6129V18.6774C0 18.8226 0 18.8226 0 18.9677C0 19.1129 0 19.1129 0 19.2581C0 19.4032 0 19.5484 0 19.8387C0 19.9839 0.145161 20.129 0.145161 20.2742C0.290322 20.2742 0.290322 20.4194 0.435483 20.5645C0.580645 20.7097 0.725806 20.7097 0.870968 20.8548C1.01613 21 1.16129 21 1.30645 21C1.45161 21 1.59677 21 1.8871 21C2.03226 21 2.03226 21 2.17742 21C2.32258 21 2.32258 21 2.46774 21H25.6936C25.8387 21 25.8387 21 25.9839 21C26.129 21 26.129 21 26.2742 21C26.4194 21 26.5645 21 26.8548 21C27 21 27.1452 20.8548 27.2903 20.8548C27.4355 20.7097 27.5806 20.7097 27.7258 20.5645C27.871 20.4194 28.0161 20.2742 28.0161 20.129C28.1613 19.9839 28.1613 19.8387 28.1613 19.6935C28.1613 19.5484 28.1613 19.4032 28.1613 19.1129C28.1613 18.9677 28.1613 18.9677 28.1613 18.8226C28.1613 18.6774 28.1613 18.6774 28.1613 18.5323V5.46774C28.1613 5.32258 28.1613 5.32258 28.1613 5.17742C28.1613 5.03226 28.1613 5.03226 28.1613 4.8871C28.1613 4.74194 28.1613 4.59677 28.1613 4.30645C28.1613 4.16129 28.0161 4.01613 28.0161 3.87097C27.871 3.72581 27.871 3.58065 27.7258 3.43548C27.5806 3.29032 27.4355 3.29032 27.2903 3.14516C27.1452 3 27 3 26.8548 3C26.7097 3 26.5645 3 26.2742 3C26.129 3 26.129 3 25.9839 3C25.8387 3 25.8387 3 25.6936 3Z" fill="black"></path>
<path d="M25.693 3.58064H25.9833C26.1285 3.58064 26.1285 3.58064 26.2736 3.58064C26.4188 3.58064 26.5639 3.58064 26.7091 3.58064C26.8543 3.58064 26.9994 3.58064 26.9994 3.7258C27.1446 3.7258 27.1446 3.87097 27.2898 3.87097C27.4349 4.01613 27.4349 4.01613 27.4349 4.16129C27.4349 4.30645 27.5801 4.30645 27.5801 4.45161C27.5801 4.59677 27.5801 4.74193 27.5801 4.8871C27.5801 5.03226 27.5801 5.03226 27.5801 5.17742C27.5801 5.32258 27.5801 5.32258 27.5801 5.46774V18.5323C27.5801 18.6774 27.5801 18.6774 27.5801 18.8226C27.5801 18.9677 27.5801 18.9677 27.5801 19.1129C27.5801 19.2581 27.5801 19.4032 27.5801 19.5484C27.5801 19.6935 27.5801 19.8387 27.4349 19.8387C27.4349 19.9839 27.2898 19.9839 27.2898 20.129C27.1446 20.2742 27.1446 20.2742 26.9994 20.2742C26.8543 20.2742 26.8543 20.4194 26.7091 20.4194C26.5639 20.4194 26.4188 20.4194 26.2736 20.4194C26.1285 20.4194 26.1285 20.4194 25.9833 20.4194C25.8381 20.4194 25.8381 20.4194 25.693 20.4194H2.46718C2.32201 20.4194 2.32201 20.4194 2.17685 20.4194C2.03169 20.4194 2.03169 20.4194 1.88653 20.4194C1.74137 20.4194 1.59621 20.4194 1.45105 20.4194C1.30589 20.4194 1.16072 20.4194 1.16072 20.2742C1.01556 20.2742 1.01556 20.129 0.870401 20.129C0.72524 19.9839 0.72524 19.9839 0.72524 19.8387C0.72524 19.6935 0.580078 19.6935 0.580078 19.5484C0.580078 19.4032 0.580078 19.2581 0.580078 19.1129C0.580078 18.9677 0.580078 18.9677 0.580078 18.8226V18.5323V5.46774V5.17742C0.580078 5.03226 0.580078 5.03226 0.580078 4.8871C0.580078 4.74193 0.580078 4.59677 0.580078 4.45161C0.580078 4.30645 0.580079 4.16129 0.72524 4.16129C0.72524 4.01613 0.870401 4.01613 0.870401 3.87097C1.01556 3.7258 1.01556 3.7258 1.16072 3.7258C1.30588 3.7258 1.30589 3.58064 1.45105 3.58064C1.59621 3.58064 1.74137 3.58064 1.88653 3.58064C2.03169 3.58064 2.03169 3.58064 2.17685 3.58064H2.46718H25.693Z" fill="white"></path>
<path d="M7.69303 9.09676C7.98335 8.80644 8.12851 8.37095 7.98335 7.93547C7.69303 7.93547 7.25755 8.22579 6.96722 8.51612C6.6769 8.80644 6.53174 9.24192 6.53174 9.53225C6.96722 9.53225 7.40271 9.38708 7.69303 9.09676Z" fill="black"></path>
<path d="M7.98505 9.67744C7.40441 9.67744 6.96892 9.96777 6.6786 9.96777C6.38828 9.96777 5.95279 9.67744 5.51731 9.67744C4.93667 9.67744 4.35602 9.96777 4.0657 10.5484C3.48505 11.5645 3.92054 13.1613 4.50118 14.0323C4.7915 14.4678 5.22699 14.9033 5.66247 14.9033C6.09796 14.9033 6.24312 14.6129 6.82376 14.6129C7.40441 14.6129 7.54957 14.9033 7.98505 14.9033C8.42054 14.9033 8.71086 14.4678 9.00118 14.0323C9.2915 13.5968 9.43667 13.0162 9.43667 13.0162C9.43667 13.0162 8.5657 12.7258 8.5657 11.5645C8.5657 10.6936 9.2915 10.2581 9.2915 10.2581C8.85602 9.67745 8.27538 9.67744 7.98505 9.67744Z" fill="black"></path>
<path d="M13.0639 8.37096C14.3704 8.37096 15.2414 9.24192 15.2414 10.5484C15.2414 11.8548 14.3704 12.7258 13.0639 12.7258H11.6123V14.9032H10.5962V8.37096H13.0639ZM11.6123 11.8548H12.7736C13.6446 11.8548 14.0801 11.4193 14.0801 10.5484C14.0801 9.67741 13.6446 9.24192 12.7736 9.24192H11.6123V11.8548Z" fill="black"></path>
<path d="M15.3882 13.5968C15.3882 12.7258 15.9688 12.2903 17.1301 12.1452L18.4366 12V11.5645C18.4366 10.9839 18.1462 10.6936 17.4204 10.6936C16.8398 10.6936 16.5495 10.9839 16.4043 11.4194H15.5333C15.5333 10.5484 16.2592 9.96776 17.4204 9.96776C18.5817 9.96776 19.3075 10.5484 19.3075 11.5645V14.9032H18.4366V14.1774C18.1462 14.7581 17.5656 15.0484 16.985 15.0484C16.114 14.9032 15.3882 14.3226 15.3882 13.5968ZM18.4366 13.1613V12.7258H17.2753C16.6946 12.7258 16.4043 13.0161 16.4043 13.4516C16.4043 13.8871 16.6946 14.1774 17.2753 14.1774C18.0011 14.1774 18.4366 13.742 18.4366 13.1613Z" fill="black"></path>
<path d="M20.3237 16.6452V15.9194H20.614C21.0495 15.9194 21.3398 15.7742 21.485 15.1936L21.6301 14.9032L19.8882 10.1129H20.9043L22.0656 13.8871L23.2269 10.1129H24.243L22.5011 15.0484C22.0656 16.2097 21.6301 16.5 20.614 16.5C20.614 16.6452 20.4688 16.6452 20.3237 16.6452Z" fill="black"></path>
</g>
<defs>
<clipPath id="clip0_3558_16305">
<rect width="28.16" height="24" fill="white"></rect>
</clipPath>
</defs>
</svg>