<svg width="24" height="24" viewBox="0 0 24 24" fill="none" xmlns="http://www.w3.org/2000/svg">
<g clip-path="url(#clip0_3591_25657)">
<rect width="24" height="24" rx="12" fill="#DF0730"></rect>
<g clip-path="url(#clip1_3591_25657)">
<path d="M18 11.6665C18 11.1742 17.7302 10.749 17.3333 10.5182V7.33338C17.3333 7.15109 17.1879 6.6665 16.6667 6.6665C16.5183 6.6665 16.371 6.71609 16.2504 6.81275L14.479 8.23005C13.5892 8.9413 12.4721 9.33317 11.3333 9.33317H7.33333C6.59688 9.33317 6 9.93005 6 10.6665V12.6665C6 13.403 6.59688 13.9998 7.33333 13.9998H8.03542C8.00646 14.2182 7.99 14.4403 7.99 14.6665C7.99 15.495 8.18292 16.278 8.5225 16.9778C8.63063 17.2005 8.86667 17.3332 9.11417 17.3332H10.6617C11.2044 17.3332 11.5302 16.7115 11.2013 16.2798C10.8596 15.8315 10.6565 15.2723 10.6565 14.6665C10.6565 14.435 10.6902 14.2125 10.7483 13.9998H11.3333C12.4721 13.9998 13.5892 14.3917 14.4788 15.103L16.2502 16.5203C16.3684 16.6148 16.5151 16.6664 16.6665 16.6665C17.1856 16.6665 17.3331 16.1919 17.3331 15.9998V12.815C17.7302 12.584 18 12.1588 18 11.6665ZM16 14.6128L15.3115 14.0619C14.1865 13.1619 12.7733 12.6665 11.3333 12.6665V10.6665C12.7733 10.6665 14.1865 10.1711 15.3115 9.27109L16 8.72025V14.6128Z" fill="white"></path>
</g>
</g>
<defs>
<clipPath id="clip0_3591_25657">
<rect width="24" height="24" fill="white"></rect>
</clipPath>
<clipPath id="clip1_3591_25657">
<rect width="12" height="10.6667" fill="white" transform="translate(6 6.6665)"></rect>
</clipPath>
</defs>
</svg>