<svg width="24" height="24" viewBox="0 0 24 24" fill="none" xmlns="http://www.w3.org/2000/svg">
<path d="M21.3061 3C22.7755 3 24 4.2753 24 5.80567V7.2085H0.122449V5.80567C0.122449 4.2753 1.34694 3 2.81633 3H21.3061ZM23.8776 18.1943C23.8776 19.7247 22.6531 21 21.1837 21H2.69388C1.22449 21 0 19.7247 0 18.1943V9.90486H23.8776V18.1943ZM4.65306 15.3887C4.28571 15.3887 4.04082 15.6437 4.04082 16.0263C4.04082 16.4089 4.28571 16.664 4.65306 16.664H7.34694C7.71429 16.664 7.95918 16.4089 7.95918 16.0263C7.95918 15.6437 7.71429 15.3887 7.34694 15.3887H4.65306ZM10.0408 16.7915H15.3061C15.6735 16.7915 15.9184 16.5364 15.9184 16.1538C15.9184 15.7713 15.6735 15.5162 15.3061 15.5162H10.0408C9.67347 15.5162 9.42857 15.7713 9.42857 16.1538C9.42857 16.5364 9.67347 16.7915 10.0408 16.7915Z" fill="black"></path>
</svg>