<svg width="24" height="24" viewBox="0 0 24 24" fill="none" xmlns="http://www.w3.org/2000/svg">
<g clip-path="url(#clip0_3558_18099)">
<path d="M12 24C18.6274 24 24 18.6274 24 12C24 5.37258 18.6274 0 12 0C5.37258 0 0 5.37258 0 12C0 18.6274 5.37258 24 12 24Z" fill="#DD0026"></path>
<path d="M8.27631 7.99031L8.39443 7.16906L19.3857 6.20437L19.4626 5.20406L14.2369 5.65406L14.3288 4.95468L11.9297 5.16468L11.8379 5.86406L6.36475 6.34968L6.31975 6.35343L6.09193 8.17781L4.64068 8.30437L4.46162 9.69468L5.91662 9.56718C5.86412 9.92812 5.79943 10.3434 5.71975 10.7925L4.30412 10.9162L4.12506 12.3066L5.44693 12.1903C5.0335 14.1047 4.39506 16.2412 3.4585 17.4741C3.4585 17.4741 7.32193 16.05 8.27537 7.98843L8.27631 7.99031Z" fill="white"></path>
<path d="M18.5785 12.7669C18.7679 11.31 19.3172 7.02187 19.3172 7.02187L11.2069 7.73437L8.98879 7.92937L8.84629 9.66468C8.84629 9.66468 8.43285 16.3641 6.54004 19.0453C6.54004 19.0453 7.32566 18.7237 8.24723 17.6156C8.65785 17.1159 9.01504 16.5741 9.31223 16.0003C10.08 14.5416 10.7719 12.4275 11.0241 9.39749L11.0963 8.74312L17.2022 8.20593C17.2022 8.20593 16.7485 11.7253 16.5891 12.9609C16.4391 14.1225 16.755 14.9991 17.3063 15.5991C17.4479 15.7537 17.6072 15.8916 17.7788 16.0116C18.4238 16.4456 19.1991 16.6434 19.9735 16.5741C20.115 16.5619 20.5407 16.5178 20.5407 16.5178C20.5407 16.5178 18.2419 15.3712 18.5804 12.7687" fill="white"></path>
<path d="M16.4308 15.7856L14.6936 15.9384C14.7752 16.2084 14.8849 16.47 15.0199 16.7184L13.6117 16.8403L13.8667 15.0722L15.5786 14.9222L15.7108 13.8956L15.9658 11.9241L16.098 10.8966L14.4452 11.0409L14.5539 10.2862L16.1955 10.1428L16.3296 9.11531L11.7274 9.51937L11.5952 10.5459L13.2527 10.4006L13.1467 11.1553L11.4986 11.2997L11.4799 11.4441L10.9774 15.3225V15.3262L12.5814 15.1856L12.3339 16.9528L10.2264 17.1356L10.0942 18.1622L15.7717 17.67C16.4083 18.2184 17.208 18.5428 18.0471 18.5906C16.8977 17.8294 16.5227 16.2712 16.4317 15.7856M14.298 12.0703L14.8624 12.0206L14.6149 13.9922L14.013 14.0447L14.298 12.0703ZM12.2036 14.2022L12.4661 12.2297L13.0005 12.1828L12.7239 14.1562L12.2036 14.2022Z" fill="white"></path>
</g>
<defs>
<clipPath id="clip0_3558_18099">
<rect width="24" height="24" fill="white"></rect>
</clipPath>
</defs>
</svg>