<svg width="34" height="24" viewBox="0 0 34 24" fill="none" xmlns="http://www.w3.org/2000/svg">
<g clip-path="url(#clip0_3558_16368)">
<path d="M24.84 3H9C4.05 3 0 7.05 0 12C0 16.95 4.05 21 9 21H24.84C29.79 21 33.84 16.95 33.84 12C33.84 7.05 29.79 3 24.84 3Z" fill="white"></path>
<path d="M24.84 3.729C25.9515 3.729 27.0315 3.9495 28.0485 4.3815C29.034 4.8 29.916 5.3985 30.681 6.159C31.4415 6.9195 32.04 7.806 32.4585 8.7915C32.8905 9.8085 33.111 10.8885 33.111 12C33.111 13.1115 32.8905 14.1915 32.4585 15.2085C32.04 16.194 31.4415 17.076 30.681 17.841C29.9205 18.6015 29.034 19.2 28.0485 19.6185C27.0315 20.0505 25.9515 20.271 24.84 20.271H9C7.8885 20.271 6.8085 20.0505 5.7915 19.6185C4.806 19.2 3.924 18.6015 3.159 17.841C2.3985 17.0805 1.8 16.194 1.3815 15.2085C0.9495 14.1915 0.729 13.1115 0.729 12C0.729 10.8885 0.9495 9.8085 1.3815 8.7915C1.8 7.806 2.3985 6.924 3.159 6.159C3.9195 5.3985 4.806 4.8 5.7915 4.3815C6.8085 3.9495 7.8885 3.729 9 3.729H24.84ZM24.84 3H9C4.05 3 0 7.05 0 12C0 16.95 4.05 21 9 21H24.84C29.79 21 33.84 16.95 33.84 12C33.84 7.05 29.79 3 24.84 3Z" fill="#3C4043"></path>
<path d="M16.1379 12.639V15.3615H15.2739V8.6385H17.5644C18.1449 8.6385 18.6399 8.83201 19.0449 9.21901C19.4589 9.60601 19.6659 10.0785 19.6659 10.6365C19.6659 11.208 19.4589 11.6805 19.0449 12.063C18.6444 12.4455 18.1494 12.6345 17.5644 12.6345H16.1379V12.639ZM16.1379 9.46651V11.811H17.5824C17.9244 11.811 18.2124 11.694 18.4374 11.4645C18.6669 11.235 18.7839 10.956 18.7839 10.641C18.7839 10.3305 18.6669 10.056 18.4374 9.82651C18.2124 9.58801 17.9289 9.471 17.5824 9.471H16.1379V9.46651Z" fill="#3C4043"></path>
<path d="M21.925 10.6095C22.564 10.6095 23.068 10.7805 23.437 11.1225C23.806 11.4645 23.9905 11.9325 23.9905 12.5265V15.3615H23.167V14.7225H23.131C22.7755 15.249 22.2985 15.51 21.7045 15.51C21.196 15.51 20.773 15.3615 20.431 15.06C20.089 14.7585 19.918 14.385 19.918 13.935C19.918 13.458 20.098 13.08 20.458 12.801C20.818 12.5175 21.2995 12.378 21.898 12.378C22.411 12.378 22.834 12.4725 23.1625 12.6615V12.4635C23.1625 12.162 23.0455 11.91 22.807 11.6985C22.5685 11.487 22.2895 11.3835 21.97 11.3835C21.4885 11.3835 21.106 11.586 20.827 11.9955L20.0665 11.5185C20.485 10.911 21.106 10.6095 21.925 10.6095ZM20.809 13.9485C20.809 14.1735 20.9035 14.3625 21.097 14.511C21.286 14.6595 21.511 14.736 21.7675 14.736C22.132 14.736 22.456 14.601 22.7395 14.331C23.023 14.061 23.167 13.746 23.167 13.3815C22.897 13.17 22.5235 13.062 22.042 13.062C21.691 13.062 21.3985 13.1475 21.1645 13.314C20.926 13.4895 20.809 13.701 20.809 13.9485Z" fill="#3C4043"></path>
<path d="M28.6888 10.758L25.8088 17.382H24.9178L25.9888 15.0645L24.0898 10.758H25.0303L26.3983 14.061H26.4163L27.7483 10.758H28.6888Z" fill="#3C4043"></path>
<path d="M12.7009 12.09C12.7009 11.8083 12.6757 11.5387 12.6289 11.2795H9.00732V12.7645L11.0931 12.765C11.0085 13.2591 10.7362 13.6803 10.3191 13.9611V14.9245H11.5606C12.2856 14.2536 12.7009 13.2618 12.7009 12.09Z" fill="#4285F4"></path>
<path d="M10.319 13.9611C9.9734 14.1942 9.52835 14.3305 9.0077 14.3305C8.00195 14.3305 7.14875 13.6528 6.8432 12.7393H5.5625V13.7329C6.197 14.992 7.5011 15.856 9.0077 15.856C10.049 15.856 10.9238 15.5136 11.5606 14.9241L10.319 13.9611Z" fill="#34A853"></path>
<path d="M6.72288 12.0022C6.72288 11.7457 6.76563 11.4978 6.84348 11.2647V10.2711H5.56278C5.30043 10.7917 5.15283 11.3794 5.15283 12.0022C5.15283 12.625 5.30088 13.2127 5.56278 13.7334L6.84348 12.7398C6.76563 12.5067 6.72288 12.2587 6.72288 12.0022Z" fill="#FABB05"></path>
<path d="M9.0077 9.67348C9.57605 9.67348 10.085 9.86923 10.4868 10.2517L11.5871 9.15238C10.9188 8.53003 10.0476 8.14798 9.0077 8.14798C7.50155 8.14798 6.197 9.01198 5.5625 10.2711L6.8432 11.2647C7.14875 10.3512 8.00195 9.67348 9.0077 9.67348Z" fill="#E94235"></path>
</g>
<defs>
<clipPath id="clip0_3558_16368">
<rect width="33.84" height="24" fill="white"></rect>
</clipPath>
</defs>
</svg>