<svg width="24" height="24" viewBox="0 0 24 24" fill="none" xmlns="http://www.w3.org/2000/svg">
<g clip-path="url(#clip0_3601_19954)">
<path d="M12 24C18.6274 24 24 18.6274 24 12C24 5.37258 18.6274 0 12 0C5.37258 0 0 5.37258 0 12C0 18.6274 5.37258 24 12 24Z" fill="#57B763"></path>
<path d="M20.004 11.3C20.004 7.716 16.412 4.8 11.992 4.8C7.57198 4.8 3.97998 7.716 3.97998 11.3C3.97998 14.512 6.82798 17.204 10.68 17.712C10.94 17.768 11.296 17.884 11.384 18.108C11.464 18.312 11.436 18.628 11.408 18.832C11.408 18.832 11.316 19.396 11.292 19.516C11.256 19.72 11.132 20.308 11.984 19.948C12.84 19.588 16.596 17.232 18.28 15.296C19.44 14.024 19.996 12.732 19.996 11.296L20.004 11.3Z" fill="white"></path>
<path d="M17.3356 13.372C17.4196 13.372 17.4876 13.304 17.4876 13.22V12.652C17.4876 12.568 17.4196 12.5 17.3356 12.5H15.8076V11.912H17.3356C17.4196 11.912 17.4876 11.844 17.4876 11.76V11.192C17.4876 11.108 17.4196 11.04 17.3356 11.04H15.8076V10.452H17.3356C17.4196 10.452 17.4876 10.384 17.4876 10.3V9.732C17.4876 9.648 17.4196 9.58 17.3356 9.58H15.0836C14.9996 9.58 14.9316 9.648 14.9316 9.732V13.224C14.9316 13.312 14.9996 13.38 15.0836 13.38H17.3356V13.372Z" fill="#57B763"></path>
<path d="M9.01182 13.372C9.09582 13.372 9.16382 13.304 9.16382 13.22V12.652C9.16382 12.568 9.09582 12.5 9.01182 12.5H7.48382V9.72401C7.48382 9.64001 7.41582 9.57201 7.33182 9.57201H6.76382C6.67982 9.57201 6.61182 9.64001 6.61182 9.72401V13.216C6.61182 13.304 6.67982 13.372 6.76382 13.372H9.01582H9.01182Z" fill="#57B763"></path>
<path d="M10.3719 9.56801H9.79995C9.716 9.56801 9.64795 9.63606 9.64795 9.72001V13.22C9.64795 13.304 9.716 13.372 9.79995 13.372H10.3719C10.4559 13.372 10.5239 13.304 10.5239 13.22V9.72001C10.5239 9.63606 10.4559 9.56801 10.3719 9.56801Z" fill="#57B763"></path>
<path d="M14.236 9.56801H13.668C13.584 9.56801 13.516 9.63601 13.516 9.72001V11.796L11.916 9.63601C11.916 9.63601 11.908 9.62401 11.904 9.62001C11.904 9.62001 11.9 9.61201 11.896 9.61201C11.896 9.61201 11.892 9.60801 11.888 9.60401C11.888 9.60401 11.888 9.60401 11.884 9.60401C11.884 9.60401 11.88 9.60401 11.876 9.60001C11.876 9.60001 11.876 9.60001 11.872 9.60001C11.872 9.60001 11.868 9.60001 11.864 9.59601C11.864 9.59601 11.864 9.59601 11.86 9.59601C11.86 9.59601 11.856 9.59601 11.852 9.59601C11.852 9.59601 11.852 9.59601 11.848 9.59601H11.84C11.84 9.59601 11.84 9.59601 11.836 9.59601H11.828C11.828 9.59601 11.824 9.59601 11.82 9.59601C11.82 9.59601 11.816 9.59601 11.812 9.59601C11.812 9.59601 11.808 9.59601 11.804 9.59601C11.804 9.59601 11.804 9.59601 11.8 9.59601H11.236C11.152 9.59601 11.084 9.66401 11.084 9.74801V13.244C11.084 13.328 11.152 13.396 11.236 13.396H11.804C11.888 13.396 11.956 13.328 11.956 13.244V11.168L13.556 13.332C13.556 13.332 13.58 13.36 13.596 13.372L13.604 13.376C13.604 13.376 13.604 13.376 13.608 13.376C13.608 13.376 13.612 13.376 13.616 13.376C13.616 13.376 13.62 13.376 13.624 13.376C13.624 13.376 13.624 13.376 13.628 13.376C13.628 13.376 13.636 13.376 13.64 13.376C13.652 13.376 13.668 13.38 13.68 13.38H14.244C14.328 13.38 14.396 13.312 14.396 13.228V9.73201C14.396 9.64801 14.328 9.58001 14.244 9.58001L14.236 9.56801Z" fill="#57B763"></path>
</g>
<defs>
<clipPath id="clip0_3601_19954">
<rect width="24" height="24" fill="white"></rect>
</clipPath>
</defs>
</svg>