<svg width="17" height="24" viewBox="0 0 17 24" fill="none" xmlns="http://www.w3.org/2000/svg">
<g clip-path="url(#clip0_3558_16369)">
<path d="M5.76729 3.08739H4.89349C4.80611 3.08739 4.80611 3.08739 4.71873 3.17477C4.63135 3.17477 4.63135 3.26214 4.63135 3.34952V8.50486C4.63135 8.59224 4.63135 8.59224 4.71873 8.67962C4.80611 8.67962 4.80611 8.767 4.89349 8.767H5.76729C5.85467 8.767 5.85467 8.767 5.94205 8.67962C6.02943 8.67962 6.02943 8.59224 6.02943 8.50486V3.26214C6.02943 3.17477 6.02943 3.17477 5.94205 3.08739C5.85467 3.08739 5.85467 3.08739 5.76729 3.08739Z" fill="black"></path>
<path d="M3.66996 7.36893H1.3107V3.26214C1.3107 3.17476 1.3107 3.17476 1.22332 3.08738C1.13594 3.08738 1.13594 3 1.04856 3H0.17476C0.17476 3.08738 0.0873798 3.08738 0.0873798 3.08738C-8.46341e-08 3.17476 0 3.17476 0 3.26214V8.41748C0 8.50486 -8.46341e-08 8.50486 0.0873798 8.59223C0.17476 8.59223 0.17476 8.67961 0.26214 8.67961H3.66996C3.75734 8.67961 3.75734 8.67961 3.84472 8.59223C3.9321 8.59223 3.9321 8.50486 3.9321 8.41748V7.54369C3.9321 7.45631 3.9321 7.45631 3.84472 7.36893C3.75734 7.45631 3.75734 7.36893 3.66996 7.36893Z" fill="black"></path>
<path d="M16.5147 4.31068C16.6021 4.31068 16.6021 4.31068 16.6894 4.2233C16.7768 4.2233 16.7768 4.13592 16.7768 4.04854V3.26214C16.7768 3.17476 16.7768 3.17476 16.6894 3.08738C16.6021 3.08738 16.6021 3 16.5147 3H13.1069C13.0195 3 13.0195 3 12.9321 3.08738C12.8447 3.08738 12.8447 3.17476 12.8447 3.26214V8.41748C12.8447 8.50486 12.8447 8.50486 12.9321 8.59223C13.0195 8.59223 13.0195 8.67961 13.1069 8.67961H16.5147C16.6021 8.67961 16.6021 8.67961 16.6894 8.59223C16.7768 8.59223 16.7768 8.50486 16.7768 8.41748V7.54369C16.7768 7.45631 16.7768 7.45631 16.6894 7.36893C16.6021 7.36893 16.6021 7.28155 16.5147 7.28155H14.1554V6.40777H16.5147C16.6021 6.40777 16.6021 6.40777 16.6894 6.32039C16.7768 6.32039 16.7768 6.23301 16.7768 6.14563V5.27185C16.7768 5.18447 16.7768 5.18447 16.6894 5.09709C16.6021 5.09709 16.6021 5.00971 16.5147 5.00971H14.1554V4.13592H16.5147V4.31068Z" fill="black"></path>
<path d="M11.7087 3.08738H10.8349C10.7475 3.08738 10.7475 3.08738 10.6602 3.17476C10.6602 3.17476 10.5728 3.17476 10.5728 3.26214V6.23301L8.30091 3.08738L8.21353 3C8.12615 3 8.12615 3 8.03877 3H7.16497C7.07759 3 7.07759 3 6.99021 3.08738C6.90283 3.08738 6.90283 3.17476 6.90283 3.26214V8.41748C6.90283 8.50486 6.90283 8.50486 6.99021 8.59223C7.07759 8.59223 7.07759 8.67961 7.16497 8.67961H8.03877C8.12615 8.67961 8.12615 8.67961 8.21353 8.59223C8.30091 8.59223 8.30091 8.50486 8.30091 8.41748V5.35922L10.6602 8.59223L10.7475 8.67961H10.8349H11.7087C11.7961 8.67961 11.7961 8.67961 11.8835 8.59223C11.9709 8.50486 11.9709 8.50486 11.9709 8.41748V3.26214C11.9709 3.17476 11.9709 3.17476 11.8835 3.08738C11.7961 3.08738 11.7961 3.08738 11.7087 3.08738Z" fill="black"></path>
<path d="M15.8158 11.0388H0.873822C0.436922 11.0388 0.0874023 11.3883 0.0874023 11.8252V20.2136C0.0874023 20.6505 0.436922 21 0.873822 21H15.8158C16.2527 21 16.6022 20.6505 16.6022 20.2136V11.8252C16.6022 11.3883 16.2527 11.0388 15.8158 11.0388Z" fill="#06C755"></path>
<path d="M6.11627 14.8835C6.11627 15.7573 5.41723 16.4563 4.45605 16.4563H3.75701V17.767C3.75701 17.767 3.75701 17.767 3.75701 17.8544C3.75701 17.8544 3.75701 17.8544 3.75701 17.9418C3.75701 17.9418 3.75701 17.9418 3.66963 17.9418C3.66963 17.9418 3.66963 17.9418 3.58225 17.9418H2.70845C2.70845 17.9418 2.62107 17.9418 2.62107 17.8544L2.53369 17.767V13.4854C2.53369 13.4854 2.53369 13.3981 2.62107 13.3981L2.70845 13.3107H4.36867C5.32985 13.3107 6.11627 14.0097 6.11627 14.8835ZM4.98033 14.8835C4.98033 14.7961 4.98033 14.7087 4.98033 14.6214C4.98033 14.534 4.89295 14.4466 4.89295 14.4466C4.80557 14.3592 4.80557 14.3592 4.71819 14.3592C4.63081 14.3592 4.54343 14.3592 4.45605 14.3592H3.75701V15.4952H4.45605C4.54343 15.4952 4.63081 15.4952 4.71819 15.4952C4.80557 15.4952 4.89295 15.4078 4.89295 15.4078C4.98033 15.3204 4.98033 15.3204 4.98033 15.233C4.98033 15.0583 4.98033 14.9709 4.98033 14.8835Z" fill="white"></path>
<path d="M10.1363 14.7087V17.8544H9.26249V17.5922C9.00035 17.8544 8.73821 18.0291 8.21393 18.0291C7.34013 18.0291 6.55371 17.2427 6.55371 16.2816C6.55371 15.3204 7.25275 14.534 8.21393 14.534C8.65083 14.534 9.00035 14.7087 9.26249 14.9709V14.7087H10.1363C10.0489 14.6214 10.0489 14.6214 10.1363 14.7087ZM9.08773 16.2816C9.08773 15.7573 8.73821 15.4951 8.30131 15.4951C7.86441 15.4951 7.51489 15.8447 7.51489 16.2816C7.51489 16.8058 7.86441 17.068 8.30131 17.068C8.73821 17.068 9.08773 16.7184 9.08773 16.2816Z" fill="white"></path>
<path d="M13.5438 14.7087L12.7573 16.6311L11.9709 14.7087C11.9709 14.7087 11.9709 14.6214 11.8835 14.6214H11.7962H10.9224L12.3204 17.767L11.7962 18.9903H12.67H12.7573C12.7573 18.9903 12.7573 18.9903 12.8447 18.9029L14.6797 14.534H13.8059C13.6311 14.6214 13.6311 14.6214 13.5438 14.7087Z" fill="white"></path>
</g>
<defs>
<clipPath id="clip0_3558_16369">
<rect width="16.78" height="24" fill="white"></rect>
</clipPath>
</defs>
</svg>