<svg width="24" height="24" viewBox="0 0 24 24" fill="none" xmlns="http://www.w3.org/2000/svg">
<path d="M16 4.00018H18C18.5304 4.00018 19.0391 4.2109 19.4142 4.58597C19.7893 4.96104 20 5.46975 20 6.00018V20.0002C20 20.5306 19.7893 21.0393 19.4142 21.4144C19.0391 21.7895 18.5304 22.0002 18 22.0002H6C5.46957 22.0002 4.96086 21.7895 4.58579 21.4144C4.21071 21.0393 4 20.5306 4 20.0002V6.00018C4 5.46975 4.21071 4.96104 4.58579 4.58597C4.96086 4.2109 5.46957 4.00018 6 4.00018H8" fill="#D2DAEA"></path>
<path d="M16 4.00018H18C18.5304 4.00018 19.0391 4.2109 19.4142 4.58597C19.7893 4.96104 20 5.46975 20 6.00018V20.0002C20 20.5306 19.7893 21.0393 19.4142 21.4144C19.0391 21.7895 18.5304 22.0002 18 22.0002H6C5.46957 22.0002 4.96086 21.7895 4.58579 21.4144C4.21071 21.0393 4 20.5306 4 20.0002V6.00018C4 5.46975 4.21071 4.96104 4.58579 4.58597C4.96086 4.2109 5.46957 4.00018 6 4.00018H8" stroke="#D2DAEA" stroke-width="2" stroke-linecap="round" stroke-linejoin="round"></path>
<path d="M14.7004 2.40002H9.30039C8.80333 2.40002 8.40039 2.66865 8.40039 3.00002V4.20002C8.40039 4.5314 8.80333 4.80002 9.30039 4.80002H14.7004C15.1974 4.80002 15.6004 4.5314 15.6004 4.20002V3.00002C15.6004 2.66865 15.1974 2.40002 14.7004 2.40002Z" fill="#A5B2CC" stroke="#A5B2CC" stroke-width="2" stroke-linecap="round" stroke-linejoin="round"></path>
<circle cx="7.2" cy="10.8" r="1.2" fill="#8A99B4"></circle>
<circle cx="7.2" cy="16.8" r="1.2" fill="#8A99B4"></circle>
<rect x="9.59961" y="9.59998" width="8.4" height="2.4" rx="1.2" fill="#8A99B4"></rect>
<rect x="9.59961" y="15.6" width="8.4" height="2.4" rx="1.2" fill="#8A99B4"></rect>
</svg>