<svg width="20" height="20" viewBox="0 0 20 20" fill="none" xmlns="http://www.w3.org/2000/svg">
<path d="M10 9.99984C12.3672 9.99984 14.2857 8.1346 14.2857 5.83317C14.2857 3.53174 12.3672 1.6665 10 1.6665C7.63281 1.6665 5.71429 3.53174 5.71429 5.83317C5.71429 8.1346 7.63281 9.99984 10 9.99984ZM13 11.0415H12.4408C11.6975 11.3735 10.8705 11.5623 10 11.5623C9.12946 11.5623 8.3058 11.3735 7.55915 11.0415H7C4.51562 11.0415 2.5 13.0011 2.5 15.4165V16.7707C2.5 17.6333 3.21987 18.3332 4.10714 18.3332H15.8929C16.7801 18.3332 17.5 17.6333 17.5 16.7707V15.4165C17.5 13.0011 15.4844 11.0415 13 11.0415Z" fill="#767678"></path>
</svg>